<mxfile host="app.diagrams.net" modified="2021-04-13T10:14:03.608Z" agent="5.0 (Macintosh; Intel Mac OS X 11_0_1) AppleWebKit/537.36 (KHTML, like Gecko) Chrome/89.0.4389.114 Safari/537.36" etag="lNwZTKsiKe5DPUjXKjvV" version="14.5.7" type="github">
  <diagram id="-9ge4QOz6YA7k5qSucZB" name="Page-1">
    <mxGraphModel dx="1810" dy="1010" grid="1" gridSize="10" guides="1" tooltips="1" connect="1" arrows="1" fold="1" page="1" pageScale="1" pageWidth="827" pageHeight="1169" math="0" shadow="0">
      <root>
        <mxCell id="0" />
        <mxCell id="1" parent="0" />
        <mxCell id="W7Y0-ZNPRnM_CGCp3w9p-14" style="edgeStyle=none;rounded=0;orthogonalLoop=1;jettySize=auto;html=1;exitX=0;exitY=0.25;exitDx=0;exitDy=0;fontSize=14;" edge="1" parent="1" source="W7Y0-ZNPRnM_CGCp3w9p-13" target="W7Y0-ZNPRnM_CGCp3w9p-3">
          <mxGeometry relative="1" as="geometry" />
        </mxCell>
        <mxCell id="W7Y0-ZNPRnM_CGCp3w9p-15" style="edgeStyle=none;rounded=0;orthogonalLoop=1;jettySize=auto;html=1;exitX=0;exitY=0.75;exitDx=0;exitDy=0;fontSize=14;" edge="1" parent="1" source="W7Y0-ZNPRnM_CGCp3w9p-13" target="W7Y0-ZNPRnM_CGCp3w9p-9">
          <mxGeometry relative="1" as="geometry" />
        </mxCell>
        <mxCell id="W7Y0-ZNPRnM_CGCp3w9p-6" style="rounded=0;orthogonalLoop=1;jettySize=auto;html=1;exitX=1;exitY=0.25;exitDx=0;exitDy=0;" edge="1" parent="1" source="W7Y0-ZNPRnM_CGCp3w9p-1" target="W7Y0-ZNPRnM_CGCp3w9p-3">
          <mxGeometry relative="1" as="geometry" />
        </mxCell>
        <mxCell id="W7Y0-ZNPRnM_CGCp3w9p-11" style="edgeStyle=none;rounded=0;orthogonalLoop=1;jettySize=auto;html=1;exitX=1;exitY=0.75;exitDx=0;exitDy=0;fontSize=14;" edge="1" parent="1" source="W7Y0-ZNPRnM_CGCp3w9p-1" target="W7Y0-ZNPRnM_CGCp3w9p-9">
          <mxGeometry relative="1" as="geometry" />
        </mxCell>
        <mxCell id="W7Y0-ZNPRnM_CGCp3w9p-1" value="&lt;font style=&quot;font-size: 16px&quot;&gt;网格站&lt;/font&gt;" style="rounded=0;whiteSpace=wrap;html=1;fillColor=#f5f5f5;strokeColor=#666666;fontColor=#333333;" vertex="1" parent="1">
          <mxGeometry x="180" y="320" width="140" height="60" as="geometry" />
        </mxCell>
        <mxCell id="W7Y0-ZNPRnM_CGCp3w9p-2" value="" style="triangle;whiteSpace=wrap;html=1;rotation=-90;fillColor=#f5f5f5;strokeColor=#666666;fontColor=#333333;" vertex="1" parent="1">
          <mxGeometry x="225" y="225" width="50" height="140" as="geometry" />
        </mxCell>
        <mxCell id="W7Y0-ZNPRnM_CGCp3w9p-3" value="&lt;font style=&quot;font-size: 16px&quot;&gt;服务商A&lt;/font&gt;" style="shadow=0;dashed=0;html=1;strokeColor=none;fillColor=#4495D1;labelPosition=center;verticalLabelPosition=bottom;verticalAlign=top;align=center;outlineConnect=0;shape=mxgraph.veeam.company_owner;" vertex="1" parent="1">
          <mxGeometry x="480" y="230" width="44.4" height="48.8" as="geometry" />
        </mxCell>
        <mxCell id="W7Y0-ZNPRnM_CGCp3w9p-7" value="我来负责分拣配送" style="whiteSpace=wrap;html=1;shape=mxgraph.basic.rectCallout;dx=30;dy=15;boundedLbl=1;" vertex="1" parent="1">
          <mxGeometry x="510" y="170" width="130" height="60" as="geometry" />
        </mxCell>
        <mxCell id="W7Y0-ZNPRnM_CGCp3w9p-8" value="“配”关系" style="text;html=1;align=center;verticalAlign=middle;resizable=0;points=[];autosize=1;fontSize=14;" vertex="1" parent="1">
          <mxGeometry x="350" y="278.8" width="70" height="20" as="geometry" />
        </mxCell>
        <mxCell id="W7Y0-ZNPRnM_CGCp3w9p-9" value="&lt;font style=&quot;font-size: 16px&quot;&gt;服务商B&lt;/font&gt;" style="shadow=0;dashed=0;html=1;strokeColor=none;fillColor=#4495D1;labelPosition=center;verticalLabelPosition=bottom;verticalAlign=top;align=center;outlineConnect=0;shape=mxgraph.veeam.company_owner;" vertex="1" parent="1">
          <mxGeometry x="480" y="440" width="44.4" height="48.8" as="geometry" />
        </mxCell>
        <mxCell id="W7Y0-ZNPRnM_CGCp3w9p-10" value="我来负责这个网格站范围内的“拓团”" style="whiteSpace=wrap;html=1;shape=mxgraph.basic.rectCallout;dx=30;dy=15;boundedLbl=1;" vertex="1" parent="1">
          <mxGeometry x="510" y="390" width="130" height="60" as="geometry" />
        </mxCell>
        <mxCell id="W7Y0-ZNPRnM_CGCp3w9p-12" value="“销”关系" style="text;html=1;align=center;verticalAlign=middle;resizable=0;points=[];autosize=1;fontSize=14;" vertex="1" parent="1">
          <mxGeometry x="350" y="410" width="70" height="20" as="geometry" />
        </mxCell>
        <mxCell id="W7Y0-ZNPRnM_CGCp3w9p-13" value="橙心" style="shape=image;html=1;verticalAlign=top;verticalLabelPosition=bottom;labelBackgroundColor=#ffffff;imageAspect=0;aspect=fixed;image=https://cdn0.iconfinder.com/data/icons/fruity-3/512/Orange-128.png;fontSize=14;" vertex="1" parent="1">
          <mxGeometry x="810" y="332" width="58" height="58" as="geometry" />
        </mxCell>
        <mxCell id="W7Y0-ZNPRnM_CGCp3w9p-16" value="支付“履约费”" style="text;html=1;align=center;verticalAlign=middle;resizable=0;points=[];autosize=1;fontSize=14;" vertex="1" parent="1">
          <mxGeometry x="650" y="278.8" width="90" height="20" as="geometry" />
        </mxCell>
        <mxCell id="W7Y0-ZNPRnM_CGCp3w9p-17" value="支付“服务费”" style="text;html=1;align=center;verticalAlign=middle;resizable=0;points=[];autosize=1;fontSize=14;" vertex="1" parent="1">
          <mxGeometry x="650" y="420" width="90" height="20" as="geometry" />
        </mxCell>
      </root>
    </mxGraphModel>
  </diagram>
</mxfile>
